<svg viewBox="0 0 370.1698113207548 82.57882864111824" preserveAspectRatio="xMidYMid meet" class="css-8aabad" id="ffebdffb"><defs id="SvgjsDefs2606"></defs><g id="SvgjsG2607" featurekey="tOsHRK-0" transform="matrix(0.8257882595062256,0,0,0.8257882595062256,-0.00023901628964023006,0)" fill="#111"><g xmlns="http://www.w3.org/2000/svg"><circle fill="#111" cx="31.991" cy="7.925" r="7.925"></circle><path fill="#111" d="M33.423,79.346l-0.005,16.211c0,2.452,1.987,4.443,4.444,4.443c2.453,0,4.44-1.989,4.44-4.443l0.007-16.211   H33.423z"></path><path fill="#111" d="M22.561,79.346l-0.002,16.211c0,2.452,1.992,4.443,4.444,4.443c2.456,0,4.445-1.989,4.445-4.443   l0.001-16.211H22.561z"></path><path fill="#111" d="M55.223,61.815c0.193-1.639,0.318-3.309,0.318-5.021c0-2.321-0.194-4.58-0.544-6.76H9.146   c-0.349,2.179-0.544,4.438-0.544,6.76c0,1.713,0.125,3.383,0.319,5.021H55.223z"></path><path fill="#111" d="M49.925,77.364c2.117-3.366,3.736-7.319,4.674-11.678H9.544c0.938,4.358,2.557,8.311,4.675,11.678H49.925z"></path><path fill="#111" d="M48.729,34.428H15.414c-2.404,3.285-4.267,7.285-5.436,11.732h44.189   C52.998,41.712,51.135,37.712,48.729,34.428z"></path><path fill="#111" d="M62.53,30.643c0,0-14.524-10.495-14.697-10.579c-1.827-1.19-4.688-2.451-7.799-2.518   c-1.004-0.022-14.104-0.022-15.103,0c-3.225,0.07-5.95,1.378-7.767,2.604C16.104,20.845,1.616,30.529,1.616,30.529   c-1.19,0.762-1.807,2.162-1.563,3.554l2.423,13.823c0.298,1.701,1.774,2.898,3.443,2.898c0.201,0,0.404-0.019,0.608-0.054   c1.903-0.334,3.177-2.148,2.843-4.053L7.351,35.171c0,0,12.097-7.751,12.819-8.32c0.621-0.304,1.159-0.277,1.535-0.07   c0.908,0.5,0.867,1.291,0.911,1.553v4.226h19.728v-4.226c0.043-0.263,0.005-1.053,0.914-1.553c0.374-0.207,0.952-0.273,1.573,0.03   c0.182,0.128,11.819,8.217,11.819,8.217l-2.046,11.666c-0.333,1.905,0.939,3.719,2.844,4.053c0.206,0.036,0.407,0.054,0.607,0.054   c1.668,0,3.146-1.197,3.446-2.898l2.421-13.823C64.156,32.763,63.614,31.428,62.53,30.643z"></path></g></g><g id="SvgjsG2608" featurekey="dVtZHI-0" transform="matrix(3.013892412185669,0,0,3.013892412185669,70.22722161500569,5.508594784395669)" fill="#111"><path d="M16.36 12 c1.1067 -0.70666 1.66 -1.7067 1.66 -3 c0 -0.97334 -0.34666 -1.81 -1.04 -2.51 s-1.5267 -1.05 -2.5 -1.05 l-13.56 0 l0 13.12 l13.56 0 c0.97334 0 1.8067 -0.35 2.5 -1.05 s1.04 -1.5367 1.04 -2.51 c0 -1.2933 -0.55334 -2.2934 -1.66 -3 z M14.48 6.5600000000000005 c0.66666 0 1.2367 0.24 1.71 0.72 s0.71 1.0533 0.71 1.72 s-0.23666 1.24 -0.71 1.72 s-1.0433 0.72 -1.71 0.72 l-12.46 0 l0 -4.88 l12.46 0 z M14.48 17.44 l-12.46 0 l0 -4.88 l12.46 0 c0.66666 0 1.2367 0.24 1.71 0.72 s0.71 1.0533 0.71 1.72 s-0.23666 1.24 -0.71 1.72 s-1.0433 0.72 -1.71 0.72 z M19.580000000000002 6.119999999999999 l0 12 c0 0.36 0.18 0.54 0.54 0.54 c0.37334 0 0.56 -0.18 0.56 -0.54 l0 0 l0 -12 c0 -0.37334 -0.18666 -0.56 -0.56 -0.56 c-0.36 0 -0.54 0.18666 -0.54 0.56 z M38.92 12.559999999999999 c0.37334 0 0.56 -0.18666 0.56 -0.56 s-0.18666 -0.56 -0.56 -0.56 l-15.44 0 l0 -4.88 l15.44 0 c0.37334 0 0.56 -0.18666 0.56 -0.56 s-0.18666 -0.56 -0.56 -0.56 l-16.56 0 l0 13.12 l16.56 0 c0.37334 0 0.56 -0.18666 0.56 -0.56 s-0.18666 -0.56 -0.56 -0.56 l-15.44 0 l0 -4.88 l15.44 0 z M53.82 5.82 c-0.72 -0.25334 -1.4467 -0.38 -2.18 -0.38 l-10.56 0 l0 13.12 l10.56 0 c0.73334 0 1.46 -0.12666 2.18 -0.38 c1.3067 -0.45334 2.3634 -1.25 3.17 -2.39 s1.21 -2.4034 1.21 -3.79 s-0.40334 -2.65 -1.21 -3.79 s-1.8633 -1.9367 -3.17 -2.39 z M53.46 17.14 c-0.56 0.2 -1.1667 0.30008 -1.82 0.30008 l-9.44 0 l0 -10.88 l9.44 0 c0.65334 0 1.26 0.1 1.82 0.3 c1.08 0.38666 1.9533 1.0533 2.62 2 s1 1.9933 1 3.14 s-0.33334 2.1934 -1 3.14 s-1.54 1.6133 -2.62 2 z M80.78 17.64 l-10.76 -12.5 l-10.42 12.5 c-0.08 0.09334 -0.12 0.20668 -0.12 0.34002 c0 0.38666 0.19334 0.58 0.58 0.58 c0.16 0 0.29334 -0.06666 0.4 -0.2 l0 0 l3.16 -3.8 l13.04 0 l3.28 3.8 c0.12 0.13334 0.26666 0.2 0.44 0.2 c0.36 0 0.54 -0.18 0.54 -0.54 c0 -0.14666 -0.04666 -0.27332 -0.14 -0.37998 z M64.56 13.440000000000001 l5.48 -6.58 l5.68 6.58 l-11.16 0 z M99.36000000000001 17.72 l-7.46 -7.46 l7.32 -3.66 c0.2 -0.09334 0.3 -0.25334 0.3 -0.48 c0 -0.21334 -0.08666 -0.37334 -0.26 -0.48 s-0.35334 -0.11332 -0.54 -0.01998 l-15.2 7.6 l0 -7.1 c0 -0.37334 -0.18666 -0.56 -0.56 -0.56 s-0.56 0.18666 -0.56 0.56 l0 12 c0 0.36 0.18666 0.54 0.56 0.54 s0.56 -0.18 0.56 -0.54 l0 -3.66 l7.34 -3.68 l7.7 7.72 c0.10666 0.10666 0.24 0.16 0.4 0.16 c0.37334 0 0.56 -0.18666 0.56 -0.56 c0 -0.14666 -0.05334 -0.27332 -0.16 -0.37998 z"></path></g></svg>