<svg width="434.85" height="97.008" viewBox="0 0 370.17 82.579" class="looka-1j8o68f">
  <g xmlns="http://www.w3.org/2000/svg" transform="scale(.82579)" fill="#fff">
    <circle cx="31.991" cy="7.925" r="7.925"/>
    <path d="m33.423 79.346-.005 16.211a4.443 4.443 0 1 0 8.884 0l.007-16.211zm-10.862 0-.002 16.211A4.446 4.446 0 0 0 27.003 100a4.443 4.443 0 0 0 4.445-4.443l.001-16.211zm32.662-17.531c.193-1.639.318-3.309.318-5.021 0-2.321-.194-4.58-.544-6.76H9.146a43 43 0 0 0-.544 6.76c0 1.713.125 3.383.319 5.021zm-5.298 15.549c2.117-3.366 3.736-7.319 4.674-11.678H9.544c.938 4.358 2.557 8.311 4.675 11.678zm-1.196-42.936H15.414c-2.404 3.285-4.267 7.285-5.436 11.732h44.189c-1.169-4.448-3.032-8.448-5.438-11.732"/>
    <path d="M62.53 30.643S48.006 20.148 47.833 20.064c-1.827-1.19-4.688-2.451-7.799-2.518-1.004-.022-14.104-.022-15.103 0-3.225.07-5.95 1.378-7.767 2.604-1.06.695-15.548 10.379-15.548 10.379a3.5 3.5 0 0 0-1.563 3.554l2.423 13.823a3.5 3.5 0 1 0 6.894-1.209L7.351 35.171s12.097-7.751 12.819-8.32c.621-.304 1.159-.277 1.535-.07.908.5.867 1.291.911 1.553v4.226h19.728v-4.226c.043-.263.005-1.053.914-1.553.374-.207.952-.273 1.573.03.182.128 11.819 8.217 11.819 8.217l-2.046 11.666a3.501 3.501 0 0 0 6.897 1.209l2.421-13.823a3.49 3.49 0 0 0-1.392-3.437"/>
  </g>
  <path d="M119.534 41.676q5.003-3.195 5.003-9.042 0-4.4-3.134-7.565c-3.135-3.164-4.602-3.164-7.535-3.164H73v39.542h40.868q4.4 0 7.535-3.165c3.134-3.164 3.134-4.632 3.134-7.565q0-5.847-5.003-9.041m-5.666-16.396q3.014 0 5.154 2.17c2.14 2.17 2.14 3.174 2.14 5.184s-.715 3.737-2.14 5.184-3.144 2.17-5.154 2.17H76.315V25.28zm0 32.791H76.315V43.363h37.553q3.014 0 5.154 2.17c2.14 2.17 2.14 3.174 2.14 5.184s-.715 3.738-2.14 5.184-3.144 2.17-5.154 2.17m15.371-34.117v36.167q0 1.627 1.627 1.627 1.688 0 1.688-1.627V23.954q0-1.688-1.688-1.688-1.627 0-1.627 1.688m58.289 19.41q1.687 0 1.687-1.688c0-1.688-.563-1.688-1.687-1.688h-46.535V25.28h46.535q1.687 0 1.687-1.688c0-1.687-.563-1.687-1.687-1.687h-49.91v39.542h49.91q1.687 0 1.687-1.688c0-1.688-.563-1.688-1.687-1.688h-46.535V43.363zm44.907-20.314a19.6 19.6 0 0 0-6.57-1.145h-31.827v39.542h31.826q3.316 0 6.57-1.145 5.908-2.05 9.555-7.204c3.646-5.153 3.646-7.242 3.646-11.422s-1.214-7.987-3.646-11.423-5.615-5.838-9.554-7.203m-1.085 34.117q-2.532.904-5.486.904h-28.45v-32.79h28.45q2.954 0 5.486.903 4.882 1.748 7.896 6.028c3.014 4.28 3.014 6.007 3.014 9.464s-1.004 6.61-3.014 9.463-4.641 4.862-7.896 6.028m82.339 1.507L281.259 21l-31.404 37.674a1.5 1.5 0 0 0-.362 1.025q0 1.748 1.748 1.748.724 0 1.206-.603l9.524-11.453h39.3l9.886 11.453q.543.603 1.326.603 1.628 0 1.628-1.628a1.7 1.7 0 0 0-.422-1.145m-48.885-12.658 16.516-19.832 17.119 19.832zm104.883 12.9-22.484-22.484L369.265 25.4a1.48 1.48 0 0 0 .904-1.447q0-.964-.783-1.447c-.784-.482-1.064-.34-1.628-.06l-45.81 22.906V23.954q0-1.688-1.689-1.688c-1.687 0-1.687.564-1.687 1.688v36.167q0 1.627 1.687 1.627c1.688 0 1.688-.542 1.688-1.627V49.09l22.122-11.091 23.207 23.267q.482.482 1.206.482 1.687 0 1.687-1.688a1.57 1.57 0 0 0-.482-1.145" fill="#fff"/>
</svg>
